<?xml version="1.0" standalone="no"?><!DOCTYPE svg PUBLIC "-//W3C//DTD SVG 1.1//EN" "http://www.w3.org/Graphics/SVG/1.1/DTD/svg11.dtd"><svg t="1764035403091" class="icon" viewBox="0 0 1024 1024" version="1.1" xmlns="http://www.w3.org/2000/svg" p-id="7841" id="mx_n_1764035403091" data-spm-anchor-id="a313x.search_index.0.i6.af3c3a81hCktQj" xmlns:xlink="http://www.w3.org/1999/xlink" width="200" height="200"><path d="M105 480a8 8 0 0 1 8-8h799a8 8 0 0 1 8 8v64a8 8 0 0 1-8 8H113a8 8 0 0 1-8-8v-64z" fill="#2c2c2c" p-id="7842"></path><path d="M480 920a8 8 0 0 1-8-8V112a8 8 0 0 1 8-8h64a8 8 0 0 1 8 8v800a8 8 0 0 1-8 8h-64z" fill="#2c2c2c" p-id="7843"></path></svg>