<?xml version="1.0" standalone="no"?><!DOCTYPE svg PUBLIC "-//W3C//DTD SVG 1.1//EN" "http://www.w3.org/Graphics/SVG/1.1/DTD/svg11.dtd"><svg t="1764922941432" class="icon" viewBox="0 0 1024 1024" version="1.1" xmlns="http://www.w3.org/2000/svg" p-id="6585" xmlns:xlink="http://www.w3.org/1999/xlink" width="200" height="200"><path d="M113.777778 568.888889m56.888889 0l227.555555 0q56.888889 0 56.888889 56.888889l0 0q0 56.888889-56.888889 56.888889l-227.555555 0q-56.888889 0-56.888889-56.888889l0 0q0-56.888889 56.888889-56.888889Z" fill="#515151" p-id="6586"></path><path d="M568.888889 341.333333m56.888889 0l227.555555 0q56.888889 0 56.888889 56.888889l0 0q0 56.888889-56.888889 56.888889l-227.555555 0q-56.888889 0-56.888889-56.888889l0 0q0-56.888889 56.888889-56.888889Z" fill="#515151" p-id="6587"></path><path d="M455.111111 568.888889m0 56.888889l0 227.555555q0 56.888889-56.888889 56.888889l0 0q-56.888889 0-56.888889-56.888889l0-227.555555q0-56.888889 56.888889-56.888889l0 0q56.888889 0 56.888889 56.888889Z" fill="#515151" p-id="6588"></path><path d="M682.666667 113.777778m0 56.888889l0 227.555555q0 56.888889-56.888889 56.888889l0 0q-56.888889 0-56.888889-56.888889l0-227.555555q0-56.888889 56.888889-56.888889l0 0q56.888889 0 56.888889 56.888889Z" fill="#515151" p-id="6589"></path></svg>