<?xml version="1.0" standalone="no"?><!DOCTYPE svg PUBLIC "-//W3C//DTD SVG 1.1//EN" "http://www.w3.org/Graphics/SVG/1.1/DTD/svg11.dtd"><svg t="1764311626616" class="icon" viewBox="0 0 1024 1024" version="1.1" xmlns="http://www.w3.org/2000/svg" p-id="9486" xmlns:xlink="http://www.w3.org/1999/xlink" width="200" height="200"><path d="M870.4 573.44a40.96 40.96 0 0 1 40.6528 35.84l0.3072 5.12v153.6a143.36 143.36 0 0 1-134.656 143.104L768 911.36H256a143.36 143.36 0 0 1-143.104-134.656L112.64 768v-153.6a40.96 40.96 0 0 1 81.6128-5.12l0.3072 5.12v153.6a61.44 61.44 0 0 0 55.1424 61.1328L256 829.44h512a61.44 61.44 0 0 0 61.1328-55.1424L829.44 768v-153.6a40.96 40.96 0 0 1 40.96-40.96z m-358.4-460.8a40.96 40.96 0 0 1 40.6528 35.84l0.3072 5.12v387.5328l83.6608-83.712a40.96 40.96 0 0 1 53.3504-3.9424l4.608 3.9424a40.96 40.96 0 0 1 3.9424 53.3504l-3.9424 4.608-153.6 153.6a40.96 40.96 0 0 1-53.3504 3.9424l-4.608-3.9424-153.6-153.6a40.96 40.96 0 0 1 53.3504-61.952l4.608 3.9936L471.04 541.184V153.6a40.96 40.96 0 0 1 40.96-40.96z" fill="#8f8f8f" p-id="9487"></path></svg>