<?xml version="1.0" standalone="no"?><!DOCTYPE svg PUBLIC "-//W3C//DTD SVG 1.1//EN" "http://www.w3.org/Graphics/SVG/1.1/DTD/svg11.dtd"><svg t="1764041798144" class="icon" viewBox="0 0 1024 1024" version="1.1" xmlns="http://www.w3.org/2000/svg" p-id="16966" xmlns:xlink="http://www.w3.org/1999/xlink" width="200" height="200"><path d="M418.48167864 531.63316924A27.54599609 27.54599609 0 1 1 418.48167864 492.67724797 27.54599609 27.54599609 0 0 1 418.48167864 531.63316924z" fill="#ffffff" p-id="16967"></path><path d="M664.60670951 406.25752334l-110.39850959 110.39850958 142.74735515 0.0208296a14.31655765 14.31655765 0 0 0 4.45759985 11.1648307 15.81891246 15.81891246 0 0 0 22.3088318 0.02082956 22.41749094 22.41749094 0 0 0 4.45759985-8.91520069 56.64761392 56.64761392 0 0 0-18.95521541-3.33278485 56.64761392 56.64761392 0 0 0 18.95521541-3.33278487 74.26346013 74.26346013 0 0 0 23.4128153-14.49761555l2.27046055-2.27046056a63.74697642 63.74697642 0 0 0-2.24962999-86.98569333 62.68649067 62.68649067 0 0 0-87.00652292-2.27045959z" fill="#FFFFFF" p-id="16968"></path><path d="M700.41331934 504.51219626a12.28395996 12.28395996 0 0 0-4.45759984 11.16483069 14.31655765 14.31655765 0 0 0 4.45759984 11.1648307 15.789455 15.789455 0 0 0 22.28800128-9.8e-7 22.41749094 22.41749094 0 0 0 4.45760082-8.91519971c1.10398542-1.10398542-0.02082958-2.22880039 1.10398444-3.35361444 0-2.24962999 0-2.24962999-1.10398541-3.35361542a16.90885569 16.90885569 0 0 0-4.45759985-8.91520069 17.2918098 17.2918098 0 0 0-22.28800128 2.20796985z" fill="#FFFFFF" p-id="16969"></path><path d="M664.60670951 406.25752334l-110.39850959 110.39850958 142.74735515 0.0208296a14.31655765 14.31655765 0 0 0 4.45759985 11.1648307 15.81891246 15.81891246 0 0 0 22.3088318 0.02082956 22.41749094 22.41749094 0 0 0 4.45759985-8.91520069 56.64761392 56.64761392 0 0 0-18.95521541-3.33278485 56.64761392 56.64761392 0 0 0 18.95521541-3.33278487 74.26346013 74.26346013 0 0 0 23.4128153-14.49761555l2.27046055-2.27046056a63.74697642 63.74697642 0 0 0-2.24962999-86.98569333 62.68649067 62.68649067 0 0 0-87.00652292-2.27045959z" fill="#FFFFFF" p-id="16970"></path><path d="M700.41331934 504.51219626a12.28395996 12.28395996 0 0 0-4.45759984 11.16483069 14.31655765 14.31655765 0 0 0 4.45759984 11.1648307 15.789455 15.789455 0 0 0 22.28800128-9.8e-7 22.41749094 22.41749094 0 0 0 4.45760082-8.91519971c1.10398542-1.10398542-0.02082958-2.22880039 1.10398444-3.35361444 0-2.24962999 0-2.24962999-1.10398541-3.35361542a16.90885569 16.90885569 0 0 0-4.45759985-8.91520069 17.2918098 17.2918098 0 0 0-22.28800128 2.20796985z" fill="#FFFFFF" p-id="16971"></path><path d="M716.62786318 664.77429797l-149.39391395-149.3939139 152.44276886-152.44276884a87.25157028 87.25157028 0 0 1 123.21977731 123.21977734l-3.07761861 3.07761858a92.9056341 92.9056341 0 0 1-56.97907955 26.1453743 88.51254804 88.51254804 0 0 1 56.97908089 26.20289756l3.07761727 3.07761727a87.21089419 87.21089419 0 0 1-123.16225266 123.16225265z" fill="#0dd523" p-id="16972"></path><path d="M536.42900626 515.35162173l169.35528595-169.35528592a109.1356465 109.1356465 0 0 1 154.02472166 154.02472163l-15.38809034 15.38809033 15.41685267 15.41685265a109.50173699 109.50173699 0 0 1-4.57328302 149.36515021 107.99669887 107.99669887 0 0 1-149.36515029 4.57328309z m287.97301787-41.53346324l3.13514326-3.13514327a65.48952425 65.48952425 0 0 0-92.41483295-92.41483298l-137.02591485 137.02591482L735.17985909 652.37753657a65.48952425 65.48952425 0 0 0 92.38607066-92.38607063l-3.07761727-3.07761729a64.75734326 64.75734326 0 0 0-43.11541739-18.49447126l-0.02876232-43.11541738a72.28253567 72.28253567 0 0 0 43.02912903-21.45703916z" fill="#0dd523" p-id="16973"></path><path d="M287.80347898 366.13028452l149.39391391 149.39391393-152.44276882 152.44276885a87.25157028 87.25157028 0 0 1-123.21977734-123.21977732l3.07761862-3.07761862a92.9056341 92.9056341 0 0 1 56.97907824-26.14537291 88.55322606 88.55322606 0 0 1-56.97907961-26.20289896l-3.07761725-3.07761722a87.21089419 87.21089419 0 0 1 123.16225128-123.16225128z" fill="#0dd523" p-id="16974"></path><path d="M149.25313602 350.74219421a107.99669887 107.99669887 0 0 1 149.3651502-4.57328307l169.41281332 169.4128133-169.35528728 169.35528733a109.1356465 109.1356465 0 0 1-154.02472163-154.02472165l15.38809166-15.38809167-15.41685401-15.416854a107.99669887 107.99669887 0 0 1 4.63080774-149.36515024z m257.31188927 164.69571587l-137.08344086-137.08344082a65.48952425 65.48952425 0 0 0-92.38607066 92.38607065l3.07761861 3.07761858a64.75734326 64.75734326 0 0 0 43.11541737 18.49447128l0.02876236 43.11541739a76.06547088 76.06547088 0 0 0-46.19303601 21.57208984 65.48952425 65.48952425 0 0 0 92.414833 92.41483299l135.50148805-135.50148805z" fill="#0dd523" p-id="16975"></path><path d="M352.89366433 301.04009915l149.39391393 149.39391394 152.44276879-152.44276882a87.25157028 87.25157028 0 0 0-123.21977726-123.21977735l-3.07761862 3.07761862a92.9056341 92.9056341 0 0 0-26.1453743 56.97907957 88.51254804 88.51254804 0 0 0-26.20289754-56.97908092l-3.07761727-3.07761727a87.21089419 87.21089419 0 0 0-123.16225264 123.16225265z" fill="#0dd523" p-id="16976"></path><path d="M337.50557402 162.48975621a109.50173699 109.50173699 0 0 1 149.36515021-4.57328307l15.41685403 15.41685403a72.89268653 72.89268653 0 0 1 15.38809029-15.38809035 109.50173699 109.50173699 0 0 1 149.36515029 4.63080773 107.99669887 107.99669887 0 0 1 4.63080905 149.36515158l-169.3552873 169.3552873-169.44157564-169.44157566a111.04745311 111.04745311 0 0 1 4.63080907-149.36515156z m186.41161879 72.45345959l-43.1154174-0.0287623a69.1504293 69.1504293 0 0 0-18.49447128-43.11541743l-3.07761724-3.07761721a65.48952425 65.48952425 0 0 0-92.38607066 92.38607061l137.0834395 137.0834395 135.55901273-135.55901274a65.48952425 65.48952425 0 0 0-92.41483299-92.41483296l-3.07761726 3.07761724a62.76418255 62.76418255 0 0 0-20.13395009 41.59099065z" fill="#0dd523" p-id="16977"></path><path d="M651.53767778 729.86448337l-149.39391391-149.39391394-152.44276882 152.44276884a87.25157028 87.25157028 0 0 0 123.21977731 123.21977732l3.07761861-3.07761861a92.86495803 92.86495803 0 0 0 26.1453729-56.97907822 88.55322606 88.55322606 0 0 0 26.20289892 56.97907959l3.07761728 3.07761724a87.21089419 87.21089419 0 0 0 123.16225129-123.16225127z" fill="#0dd523" p-id="16978"></path><path d="M337.39052333 714.3901047l164.75324054-164.7532406 169.44157431 169.44157434a109.0949704 109.0949704 0 0 1-153.96719561 153.9671956l-15.41685267-15.41685266a72.93336452 72.93336452 0 0 1-15.38809032 15.38809034 109.1356465 109.1356465 0 0 1-154.02472167-154.02472164z m164.95458095-103.17211559l-137.02591483 137.02591482a65.48952425 65.48952425 0 0 0 92.41483297 92.41483299l3.07761728-3.07761726a64.71666524 64.71666524 0 0 0 18.49447127-43.11541739l44.58231949 1.43813977a69.1504293 69.1504293 0 0 0 18.4944726 43.11541604l3.07761727 3.07761728a65.48952425 65.48952425 0 0 0 92.38606927-92.38606933l-136.99715113-136.99715112z" fill="#0dd523" p-id="16979"></path></svg>